<svg width="264" height="318" viewBox="0 0 264 318" fill="none" xmlns="http://www.w3.org/2000/svg">
<path d="M57.2844 0.297878C55.9944 0.874583 54.325 3.19656 53.0957 6.12561C52.3065 7.99232 52.352 7.93161 51.5932 8.17443C50.5157 8.53867 49.7113 9.47961 49.2712 10.8758C48.9222 11.9989 48.4062 14.3057 48.133 16.0207C48.0419 16.567 47.9509 16.7643 47.7839 16.7188C47.6625 16.6884 47.4652 16.6429 47.3286 16.5974C47.0403 16.5215 46.7216 18.2516 45.902 24.4436C45.5985 26.6593 44.9156 31.5765 44.3844 35.3858C42.7453 46.8895 42.4873 49.7579 42.4873 56.5266C42.4873 64.6611 43.1703 71.4298 44.6272 77.7888C45.4619 81.4007 45.6896 82.2962 46.2208 84.0718C48.74 92.4492 52.3369 100.72 56.48 107.61C61.0633 115.244 66.1171 120.601 72.5367 124.623C77.0745 127.461 80.6864 130.739 82.8111 133.972C84.1922 136.066 84.8448 137.493 85.376 139.602C85.8161 141.317 85.8313 141.94 85.4518 142.744C84.8751 143.973 83.3727 144.929 81.0355 145.521C80.4133 145.688 79.8821 145.885 79.8669 145.961C79.7759 146.219 81.4756 147.949 82.4469 148.587C83.4789 149.255 85.0117 149.801 86.3321 149.938C86.924 149.998 87.1971 150.104 87.2275 150.256C87.2427 150.393 86.8784 150.894 86.3928 151.379C84.8144 152.988 82.7049 153.686 79.8062 153.565C77.8181 153.489 77.8333 153.458 78.7894 155.31C79.9124 157.465 81.8854 159.241 83.8887 159.908C84.4502 160.106 84.9207 160.349 84.951 160.47C85.0117 160.743 83.5093 162.655 82.7656 163.247C81.3694 164.355 79.275 165.281 78.1672 165.281C77.3628 165.281 77.5753 165.767 78.9563 167.148C80.2463 168.438 81.6577 169.318 82.9781 169.667C83.3271 169.773 83.6155 169.94 83.6155 170.061C83.6155 170.168 83.2209 170.608 82.7504 171.018C81.9157 171.761 81.8854 171.792 82.1434 172.08C82.6138 172.611 82.4773 173.233 81.7336 173.84C80.9444 174.493 80.6561 174.508 79.9731 174.007C79.3661 173.567 79.1992 173.552 78.5617 173.886C77.6056 174.372 75.9969 174.69 74.4034 174.69C72.5367 174.69 72.5671 174.645 73.4776 176.42C74.7221 178.788 77.0137 180.639 79.2902 181.095C79.791 181.201 80.2463 181.353 80.2919 181.413C80.3526 181.489 80.3374 181.778 80.2615 182.036C80.2008 182.294 79.958 183.523 79.7455 184.783C78.3948 192.69 76.7102 198.062 75.0408 199.777C73.083 201.795 69.0158 202.099 65.6314 200.49C65.1002 200.232 64.5994 200.035 64.5084 200.035C64.2352 200.035 64.3111 201.613 64.6601 203.085C64.8422 203.875 65.2672 205.028 65.6921 205.878C66.1019 206.667 66.3751 207.365 66.3144 207.396C66.1171 207.517 63.6281 206.743 62.7024 206.272C61.7007 205.772 59.6215 204.254 58.969 203.541C58.711 203.283 58.4378 203.07 58.3467 203.07C58.2253 203.07 58.0887 203.601 57.9673 204.436C57.7093 206.257 57.8459 209.293 58.2557 210.856C58.6047 212.206 59.5305 214.24 60.259 215.302C61.5186 217.154 63.8558 219.157 65.5859 219.901C66.2537 220.189 66.5724 220.462 66.4206 220.614C66.3447 220.69 65.7832 220.599 63.5826 220.189C60.9571 219.704 58.544 218.611 56.5559 217.002C55.964 216.532 55.8578 216.759 56.0096 218.171C56.5407 222.936 59.3635 226.897 63.4308 228.582C63.8861 228.764 64.3262 228.976 64.4021 229.052C64.8119 229.401 61.9587 231.496 60.3804 232.042C59.1511 232.452 58.4378 232.437 57.163 231.981C55.7667 231.496 54.6285 230.798 53.4751 229.735C52.9439 229.25 52.4583 228.885 52.3824 228.931C52.1396 229.067 52.0333 231.314 52.2003 232.573C52.2761 233.241 52.3065 233.833 52.2306 233.909C52.0789 234.061 50.03 233.545 48.8463 233.044C47.8295 232.604 45.8262 231.526 44.8852 230.889C44.0505 230.327 43.9443 230.494 44.0505 232.194C44.2782 235.973 46.2359 239.463 49.4989 241.922C50.9862 243.045 51.8816 243.515 53.5661 244.062C54.2794 244.289 54.8561 244.563 54.8561 244.669C54.8561 244.881 53.1867 245.473 51.6539 245.792C48.0571 246.536 45.0522 246.141 41.7589 244.487C40.9545 244.077 40.2412 243.804 40.1805 243.864C39.9832 244.062 40.4385 246.141 40.9394 247.416C41.7437 249.495 43.2613 251.407 45.1281 252.682C45.4619 252.91 46.3118 253.395 47.0099 253.76C47.6929 254.124 48.2544 254.473 48.2544 254.549C48.2544 254.746 45.4316 256.795 44.0809 257.584C42.9882 258.206 41.0001 259.011 39.1485 259.557C38.7691 259.663 38.4656 259.815 38.4656 259.906C38.4656 260.452 42.5481 262.698 43.5649 262.714C43.6863 262.714 43.9139 262.805 44.0505 262.911C44.2933 263.078 44.263 263.23 43.6408 264.838C42.6846 267.388 40.6965 271.698 39.2396 274.415C35.142 282.064 30.1641 288.483 22.7428 295.722C18.2809 300.078 14.1226 303.493 6.71649 308.911C4.56144 310.504 2.16356 312.25 1.38956 312.826C0.0236811 313.843 -0.35573 314.298 0.342386 314.101C0.888738 313.949 7.18696 312.69 9.4179 312.28C31.7728 308.182 57.254 307.105 86.4231 309.002C91.0975 309.32 93.723 309.503 96.5155 309.761C97.3957 309.836 98.9589 309.973 100.006 310.064C106.319 310.626 114.272 311.506 120.798 312.356L124.364 312.826L124.698 312.401C124.88 312.158 126.003 310.702 127.187 309.154C130.754 304.54 134.29 301.186 137.34 299.577C140.982 297.635 145.171 297.134 148.54 298.211C151.758 299.258 153.761 300.336 155.248 301.854C156.462 303.068 158.223 304.145 159.027 304.145C159.649 304.145 159.923 304.418 160.454 305.663C161.805 308.729 164.445 311.825 167.42 313.828C171.548 316.62 177.558 317.683 182.991 316.59C186.709 315.846 189.547 314.587 195.375 311.066C201.4 307.439 203.813 306.209 212.767 302.248C219.308 299.365 221.873 297.862 224.514 295.343C226.836 293.142 228.338 290.684 229.112 287.815C229.461 286.541 229.522 286.009 229.507 284.264C229.507 281.957 229.355 280.971 228.672 278.922C227.534 275.477 225.485 272.427 222.313 269.422L221.129 268.299L221.812 266.842C222.434 265.521 224.271 261.196 225.212 258.889C225.409 258.419 225.637 257.994 225.728 257.963C225.834 257.918 226.456 258.237 227.109 258.646C230.478 260.741 232.709 261.53 235.304 261.545C239.614 261.575 243.029 259.436 245.093 255.414C246.322 253.031 246.959 250.83 247.369 247.613C247.885 243.606 248.234 242.741 250.192 240.556C251.103 239.539 251.664 238.75 252.089 237.87C252.423 237.202 252.802 236.595 252.924 236.549C253.06 236.504 253.592 236.458 254.123 236.458C256.718 236.458 259.829 235.108 261.316 233.317C261.999 232.513 262.925 230.494 263.153 229.371C263.426 228.005 263.274 225.015 262.849 223.558C262.409 222.086 261.013 218.99 260.117 217.503C259.237 216.046 259.055 215.53 259.07 214.468C259.085 212.586 259.389 211.539 260.391 210.021C262.455 206.88 263.153 204.755 263.153 201.553C263.153 197.561 261.407 195.027 258.691 195.027C258.175 195.027 257.371 195.087 256.9 195.178C255.914 195.33 254.821 195.118 253.698 194.556C253 194.192 251.634 192.856 250.966 191.885C250.374 191.035 249.464 188.88 248.507 186.073C246.944 181.535 246.292 180.093 244.744 177.832C243.621 176.178 242.968 175.616 241.147 174.721C239.811 174.053 239.705 173.962 239.584 173.446C239.447 172.884 239.174 172.596 237.414 171.124C236.336 170.228 235.395 168.164 233.71 162.944C232.936 160.516 232.542 159.65 231.722 158.421C230.098 155.993 228.52 154.718 226.38 154.096C225.712 153.899 224.832 153.519 224.422 153.261C224.013 152.988 222.844 152.381 221.827 151.926L219.976 151.076L219.794 149.27C219.429 145.476 218.2 142.607 215.939 140.179C214.391 138.525 212.949 137.569 210.946 136.901C210.141 136.643 209.398 136.552 207 136.461C202.159 136.248 201.127 135.823 197.515 132.515C195.951 131.088 195.102 130.633 192.582 129.905C190.67 129.358 188.561 128.357 186.997 127.249C186.436 126.839 184.994 125.549 183.78 124.38C179.91 120.601 178.863 120.177 172.716 119.752C168.057 119.433 165.143 118.325 162.229 115.791C159.437 113.332 158.329 112.649 155.916 111.814C153.609 111.01 152.972 110.631 151.287 109.037C149.345 107.201 148.555 106.806 146.749 106.73C146.036 106.7 144.701 106.776 143.775 106.912C141.787 107.186 141.149 107.11 138.706 106.32C134.821 105.076 132.726 105.288 128.507 107.398C127.612 107.838 126.61 108.384 126.261 108.597C125.927 108.809 125.502 108.976 125.305 108.976C124.926 108.976 122.24 107.535 120.783 106.533C119.371 105.577 117.671 103.892 116.837 102.617C116.427 101.98 115.425 100.174 114.621 98.5805C112.952 95.272 110.979 91.918 109.689 90.2031C108.156 88.1694 106.244 86.1358 101.524 81.5222C93.981 74.1616 91.4465 70.9745 88.4113 65.0557C87.1364 62.5668 86.499 60.7304 86.0589 58.1353C85.7098 56.1623 85.1787 54.4777 84.5716 53.4457C84.3591 53.0663 83.5548 52.1254 82.8263 51.3514L81.4604 49.9552L81.339 47.709C81.1114 44.0515 80.5499 42.6401 78.5314 40.6065C77.5146 39.5897 77.1352 39.0888 76.6647 38.072C75.4354 35.5224 73.5232 29.558 71.7931 22.9563C69.7746 15.2922 68.0748 10.0563 66.6482 7.21833C65.1002 4.12234 62.7479 1.40574 60.775 0.464797C59.6215 -0.0815551 58.2708 -0.157415 57.2844 0.297878ZM131.573 117.915C135.64 118.613 140.239 120.632 142.439 122.665C143.502 123.637 144.412 125.018 145.262 126.915C146.173 128.964 146.567 129.54 148.206 131.346C148.905 132.105 149.481 132.788 149.481 132.864C149.481 132.925 149.254 133.304 148.965 133.699C148.07 134.943 146.856 136.931 146.067 138.479C145.217 140.164 145.323 140.088 143.335 140.376C142.667 140.483 141.377 140.756 140.451 141.014C135.822 142.228 133.349 143.837 128.022 149.027C126.261 150.742 124.334 152.533 123.757 153.003C120.434 155.674 116.837 157.495 110.554 159.666C107.7 160.652 105.014 161.806 100.871 163.824C99.0499 164.704 97.5323 165.433 97.5019 165.433C97.3046 165.433 97.5171 164.856 98.3973 162.913C100.37 158.603 101.493 155.356 101.903 152.76C102.085 151.698 102.116 150.12 102.085 145.931C102.055 139.83 102.146 138.859 103.117 135.323C104.665 129.692 108.034 124.881 112.527 121.907C115.805 119.736 119.386 118.34 123.302 117.688C125.017 117.399 129.327 117.521 131.573 117.915ZM212.281 153.428C214.345 153.883 216.242 154.566 218.23 155.568C220.477 156.706 221.903 157.708 223.724 159.484C225.955 161.654 227.018 163.323 228.11 166.374C228.915 168.605 229.416 169.561 230.736 171.306C231.904 172.854 234.181 175.161 235.577 176.178C236.002 176.511 237.292 177.301 238.415 177.953C241.435 179.699 242.862 180.67 243.605 181.505C244.577 182.597 245.639 184.479 246.565 186.786C248.553 191.749 249.858 193.904 251.831 195.467C253.774 197.015 255.261 197.379 257.765 196.939L259.131 196.696L259.617 197.242C260.33 198.047 260.391 198.608 259.905 199.944C258.964 202.524 256.384 205.18 254.821 205.195C254.411 205.195 253.273 204.649 252.256 203.95C251.861 203.692 250.526 202.478 249.297 201.264C246.808 198.806 246.823 198.821 246.201 200.05C245.229 201.978 245.366 205.787 246.489 208.003C247.142 209.308 248.158 210.689 248.993 211.402C250.541 212.738 252.681 213.466 254.047 213.117C254.791 212.935 254.851 213.011 255.185 214.316C255.428 215.272 255.428 215.348 255.17 215.834C254.988 216.152 254.866 216.835 254.806 217.64C254.73 218.839 254.669 218.99 254.092 219.855C253.743 220.356 253.045 221.161 252.529 221.631C251.649 222.451 249.782 223.558 249.281 223.558C249.13 223.558 248.993 223.316 248.887 222.906C248.052 219.43 246.671 216.35 243.879 211.721C240.494 206.075 239.766 204.74 238.81 202.433C237.247 198.608 235.881 192.856 235.608 188.804C235.562 188.015 235.486 187.256 235.456 187.135C235.41 187.014 235.441 186.816 235.516 186.695C235.623 186.528 235.866 186.528 237.064 186.74C239.538 187.15 241.799 187.439 241.891 187.347C242.027 187.211 240.373 185.739 239.174 184.934C237.929 184.1 235.122 182.688 232.269 181.444C229.947 180.427 229.006 180.063 224.453 178.484C222.571 177.832 220.461 177.073 219.748 176.815C218.352 176.314 217.578 176.284 216.713 176.739C216.106 177.058 215.863 177.589 215.666 178.97C215.453 180.548 215.013 181.611 214.103 182.825C212.16 185.435 203.889 192.796 199.943 195.436C197.439 197.121 194.798 198.32 192.051 199.048C189.972 199.61 187.179 199.64 185.374 199.14C182.49 198.335 179.121 196.256 175.463 193.008C174.173 191.855 174.128 191.976 174.902 194.374C176.404 198.927 179.804 202.812 184.235 205.043C187.164 206.515 189.046 207.001 192.355 207.122C196.225 207.274 200.58 206.272 204.906 204.224C206.165 203.632 206.347 203.692 205.74 204.497C204.89 205.62 202.326 209.976 201.43 211.797C199.882 214.969 199.366 216.972 199.351 219.992C199.336 222.117 199.488 222.951 200.186 224.666C200.884 226.412 201.552 227.368 203.221 229.052C204.83 230.661 204.83 230.661 207.47 231.966C210.232 233.317 211.325 234.106 212.145 235.29C212.858 236.352 212.995 236.944 212.767 238.158L212.57 239.205L213.055 240.177C213.662 241.36 213.617 241.74 212.752 242.559C211.614 243.637 210.445 243.546 207.334 242.134C206.105 241.588 204.632 240.966 204.041 240.753C203.464 240.541 202.538 240.146 201.992 239.873C201.005 239.372 200.444 239.038 194.783 235.548C192.097 233.894 186.572 230.6 184.463 229.401C184.053 229.174 181.686 227.777 179.227 226.305C167.556 219.37 162.821 216.759 160.408 215.97C158.42 215.302 156.129 215.409 154.034 216.259C152.319 216.957 151.363 217.609 149.876 219.081C146.309 222.602 144.336 227.064 143.304 233.954C142.895 236.716 142.94 243.576 143.395 247.461C144.458 256.719 146.583 265.005 149.421 271.137C151.029 274.582 153.791 279.028 154.231 278.861C154.717 278.679 156.235 275.28 156.978 272.715C157.176 272.017 157.403 271.425 157.479 271.41C157.555 271.379 157.995 272.169 158.45 273.14C159.589 275.644 162.321 280.364 163.793 282.428C167.283 287.284 171.275 291.245 176.222 294.751C177.831 295.904 178.15 296.178 177.983 296.345C177.345 296.967 167.465 301.869 166.843 301.869C166.312 301.869 164.87 300.806 162.654 298.773C161.516 297.726 160.53 296.861 160.484 296.861C160.165 296.861 160.955 299.759 161.865 301.914C162.427 303.265 162.396 303.386 161.501 303.386C160.196 303.386 157.889 302.112 156.569 300.64C155.339 299.289 154.778 298.044 153.579 294.129C152.987 292.171 152.259 289.773 151.955 288.817C150.422 283.763 148.829 280.151 144.989 272.958C143.016 269.27 141.119 265.081 140.208 262.41C139.161 259.375 138.129 255.824 137.704 253.835C137.507 252.925 137.173 251.407 136.961 250.497C136.46 248.311 135.595 243.303 135.261 240.632C134.897 237.673 134.897 231.921 135.261 229.401C136.005 224.393 137.674 219.734 140.133 215.849C141.483 213.709 142.652 212.328 144.716 210.4C147.797 207.502 148.768 205.893 149.132 203.025C149.466 200.293 150.073 198.745 151.53 196.848C152.866 195.103 154.338 193.873 158.041 191.339C160.469 189.669 163.231 186.407 164.506 183.705C165.963 180.594 166.858 178.909 167.526 178.029C168.998 176.087 175.22 170.168 179.379 166.783C189.061 158.907 197.651 154.217 204.283 153.216C206.363 152.912 210.43 153.003 212.281 153.428ZM61.2454 206.971C63.2487 208.321 65.8742 209.277 68.2873 209.52C69.122 209.611 69.3496 209.702 69.8808 210.173C70.2299 210.476 70.7003 210.886 70.928 211.083C71.4743 211.539 71.3074 211.751 70.0629 212.161C68.6819 212.631 67.058 212.722 65.8742 212.419C63.2487 211.751 61.7766 210.537 60.5473 208.048C60.1375 207.183 59.7885 206.439 59.7885 206.379C59.7885 206.106 60.2741 206.303 61.2454 206.971ZM62.4444 221.221C65.0699 221.95 64.8726 221.874 64.6905 222.056C64.5842 222.162 63.9165 222.208 62.7934 222.162C61.4124 222.117 60.9267 222.026 60.2741 221.752C59.4394 221.373 58.4226 220.371 58.4226 219.901C58.4226 219.673 58.5744 219.719 59.4546 220.159C60.0161 220.432 61.3668 220.918 62.4444 221.221ZM185.495 237.323C186.436 237.794 187.513 238.78 187.893 239.524C188.075 239.888 188.181 240.404 188.181 240.996C188.181 241.74 188.09 242.058 187.65 242.863C187.346 243.379 186.269 245.534 185.237 247.628C184.19 249.707 183.249 251.513 183.112 251.62C182.915 251.787 182.702 251.696 181.731 251.043C179.986 249.859 179.925 249.965 181.23 251.893C184.827 257.235 188.894 261.53 194.024 265.445C196.103 267.024 196.483 267.464 197.302 269.179C198.41 271.516 198.198 272.912 196.559 273.823C195.451 274.46 194.403 274.445 192.84 273.792C190.503 272.821 189.198 271.713 187.407 269.194C186.815 268.39 186.269 267.722 186.163 267.707C186.056 267.707 185.131 267.707 184.099 267.722C182.384 267.737 182.156 267.707 181.443 267.358C180.32 266.811 178.286 265.142 177.482 264.125C176.404 262.759 175.919 261.166 176.389 260.543C176.571 260.285 176.617 260.285 177.284 260.543C177.679 260.68 178.043 260.756 178.089 260.71C178.15 260.665 177.937 260.285 177.618 259.876C176.996 259.071 175.782 256.628 175.312 255.201C175.145 254.7 174.826 253.532 174.598 252.621C174.386 251.696 174.037 250.709 173.839 250.39C173.339 249.632 172.094 249.055 170.956 249.055C169.833 249.055 169.605 248.918 169.241 247.962C169.074 247.522 168.588 246.262 168.163 245.17C167.389 243.166 167.192 242.104 167.587 241.816C167.678 241.74 168.573 241.421 169.575 241.102C171.7 240.404 172.216 240.435 173.855 241.239C175.205 241.892 176.48 243.212 176.92 244.38C177.087 244.821 177.284 245.2 177.376 245.23C177.467 245.261 178.119 244.092 178.817 242.65C180.805 238.583 181.67 237.415 183.021 236.99C183.841 236.747 184.524 236.838 185.495 237.323ZM163.99 241.618L166.084 243.728L166.433 245.291C166.615 246.141 166.919 247.249 167.086 247.765C167.238 248.266 167.541 249.313 167.754 250.102C168.194 251.771 168.376 252.014 168.968 251.787C170.045 251.377 171.548 251.832 172.109 252.743C172.701 253.714 173.187 255.581 173.217 256.962C173.232 258.115 173.187 258.373 172.792 259.193L172.352 260.118L173.081 261.302C174.492 263.579 175.949 265.385 178.225 267.646C181.352 270.772 182.687 271.804 186.739 274.248C194.98 279.226 203.236 281.563 209.732 280.774C213.966 280.258 217.335 278.285 218.686 275.568C218.959 275.007 219.262 274.551 219.354 274.551C219.46 274.551 219.778 275.007 220.052 275.568C220.492 276.448 220.568 276.767 220.583 277.662C220.583 279.074 220.158 279.924 218.762 281.305C216.637 283.429 213.162 284.689 208.563 285.023C206.681 285.144 203.358 285.038 201.885 284.795C195.845 283.779 190.655 282.064 185.859 279.468C180.441 276.524 176.693 273.519 173.141 269.239C168.922 264.155 165.69 258.358 163.61 252.166C162.32 248.281 161.759 245.549 161.638 242.301C161.531 239.691 161.546 239.494 161.759 239.494C161.835 239.494 162.836 240.45 163.99 241.618ZM195.299 241.709C196.316 242.225 198.152 243.925 198.516 244.73C198.698 245.109 198.805 245.701 198.805 246.278C198.805 247.158 198.714 247.416 197.302 250.375C192.992 259.451 192.855 259.678 191.672 259.678C190.989 259.678 190.306 259.253 188.014 257.387C185.677 255.49 184.903 254.685 184.706 253.987C184.326 252.576 184.357 252.47 186.937 248.129C189.638 243.561 190.367 242.529 191.338 241.967C192.886 241.057 193.827 240.996 195.299 241.709ZM206.211 247.401C208.032 248.235 209.428 250.041 209.428 251.589C209.428 252.348 208.366 255.08 206.438 259.284C203.585 265.506 203.525 265.612 202.326 265.87C201.278 266.113 200.732 265.916 197.515 264.171C195.223 262.926 194.813 262.562 194.57 261.682C194.252 260.574 194.358 259.86 194.935 259.056C195.223 258.646 196.528 256.415 197.833 254.093C201.172 248.175 201.582 247.643 203.282 247.052C204.223 246.718 204.921 246.809 206.211 247.401ZM216.227 253.016C217.881 253.835 218.595 255.05 218.58 257.022C218.564 258.115 218.458 258.586 217.472 261.575C215.347 268.025 214.679 269.3 213.253 269.68C211.947 270.044 206.787 268.708 205.938 267.798C205.649 267.494 205.558 267.191 205.513 266.432C205.452 265.506 205.482 265.385 206.059 264.429C206.393 263.852 207.106 262.501 207.653 261.424C208.7 259.314 210.824 255.399 211.462 254.382C212.615 252.576 214.345 252.075 216.227 253.016Z" fill="#051020"/>
<path d="M125.639 125.291C119.872 126.126 113.528 130.406 109.765 135.991C108.019 138.571 106.896 141.575 106.365 145.096C106.061 147.1 106.046 147.479 106.198 149.315C106.471 152.533 107.018 153.337 108.93 153.322C110.554 153.322 112.253 152.654 114.727 151.046C116.123 150.15 117.14 149.3 119.508 147.085C123.56 143.29 127.991 139.967 131.543 138.039C136.02 135.626 136.338 135.384 137.128 133.836C137.674 132.758 137.598 131.544 136.93 130.724C136.384 130.026 135.838 129.753 134.927 129.662C133.425 129.51 132.954 129.192 132.241 127.78C131.467 126.232 130.435 125.549 128.386 125.215C127.248 125.048 127.339 125.033 125.639 125.291ZM123.317 130.284C125.852 130.74 128.234 132.242 129.676 134.321L130.071 134.898L129.706 135.49C129.494 135.808 129.251 136.324 129.145 136.628C129.054 136.947 128.917 137.205 128.841 137.205C128.781 137.205 128.523 136.886 128.295 136.476C127.627 135.323 126.368 133.684 125.609 133.001C123.241 130.831 119.766 130.573 116.048 132.303C114.287 133.137 114.242 132.652 116.002 131.68C117.201 131.013 118.476 130.573 119.887 130.315C121.405 130.041 121.86 130.026 123.317 130.284ZM123.605 134.776C125.062 135.156 126.732 135.9 127.187 136.385C127.627 136.856 127.415 136.84 126.049 136.309C124.304 135.611 123.241 135.384 121.663 135.384C119.66 135.384 117.869 135.96 116.199 137.159C115.274 137.812 115.091 137.69 115.881 136.962C117.11 135.808 118.536 135.05 120.115 134.701C121.405 134.412 122.255 134.427 123.605 134.776ZM120.449 138.419C121.754 139.208 121.784 141.181 120.525 142.137C119.902 142.607 118.521 142.562 117.99 142.061C117.125 141.257 116.928 140.285 117.444 139.329C118.036 138.191 119.417 137.781 120.449 138.419ZM112.527 143.928C112.527 145.779 112.527 145.81 113.088 146.933C113.422 147.601 113.589 148.117 113.513 148.192C113.346 148.359 111.449 147.919 111.13 147.646C110.963 147.509 110.933 147.282 110.994 146.751C111.191 145.248 112.223 142.061 112.496 142.061C112.527 142.061 112.542 142.896 112.527 143.928Z" fill="#051020"/>
<path d="M183.567 176.754C180.745 177.316 179.197 178.151 178.605 179.471C178.225 180.29 178.256 180.989 178.696 181.945C179.728 184.145 182.414 186.634 185.54 188.228C187.984 189.487 190.139 190.019 192.734 190.019C197.181 190.019 202.037 187.848 205.649 184.252C207.258 182.658 208.199 181.353 208.851 179.85C209.565 178.151 209.307 177.149 208.047 176.815C207.121 176.557 205.664 176.845 200.246 178.333C196.483 179.365 195.83 179.471 193.872 179.456C191.823 179.441 190.67 179.152 189.517 178.378C189.168 178.135 188.561 177.726 188.181 177.468C187.377 176.906 186.087 176.512 185.237 176.527C184.888 176.527 184.144 176.633 183.567 176.754Z" fill="#051020"/>
</svg>
